<?xml version="1.0" encoding="UTF-8"?>
<svg width="99px" height="99px" viewBox="0 0 99 99" version="1.1" xmlns="http://www.w3.org/2000/svg" xmlns:xlink="http://www.w3.org/1999/xlink">
    <!-- Generator: Sketch 59.1 (86144) - https://sketch.com -->
    <title>99 x 99</title>
    <desc>Created with Sketch.</desc>
    <g id="99-x-99" stroke="none" stroke-width="1" fill="none" fill-rule="evenodd">
        <g id="Group-15" transform="translate(13.500000, 14.500000)">
            <polygon id="Fill-1" fill="#47C3D3" points="0 13.6064303 21.1235673 13.6064303 21.1235673 0.208818849 0 0.208818849"></polygon>
            <polygon id="Fill-2" fill="#47C3D3" points="25.4197347 13.6064303 46.543302 13.6064303 46.543302 0.208818849 25.4197347 0.208818849"></polygon>
            <polygon id="Fill-3" fill="#47C3D3" points="50.3973482 13.6064303 71.5164497 13.6064303 71.5164497 0.208818849 50.3973482 0.208818849"></polygon>
            <polygon id="Fill-4" fill="#47C3D3" points="0 31.474378 21.1235673 31.474378 21.1235673 18.0723007 0 18.0723007"></polygon>
            <polygon id="Fill-5" fill="#47C3D3" points="25.4197347 31.4699121 46.543302 31.4699121 46.543302 18.0723007 25.4197347 18.0723007"></polygon>
            <polygon id="Fill-6" fill="#47C3D3" points="50.3973482 31.474378 71.5164497 31.474378 71.5164497 18.0723007 50.3973482 18.0723007"></polygon>
            <polygon id="Fill-7" fill="#47C3D3" points="0 31.474378 21.1235673 31.474378 21.1235673 18.0723007 0 18.0723007"></polygon>
            <polygon id="Fill-8" fill="#47C3D3" points="50.3973482 31.474378 71.5164497 31.474378 71.5164497 18.0723007 50.3973482 18.0723007"></polygon>
            <polygon id="Fill-9" fill="#47C3D3" points="0 35.9389087 0 49.3365201 18.1850245 49.3365201 21.1235673 46.1568203 21.1235673 35.9389087"></polygon>
            <polygon id="Fill-10" fill="#47C3D3" points="50.3977948 35.9389087 50.3977948 46.1746838 53.2648837 49.3365201 71.5213621 49.3365201 71.5213621 35.9389087"></polygon>
            <polygon id="Fill-11" fill="#47C3D3" points="0 53.8006042 0 67.1982156 1.67470143 67.1982156 14.0585602 53.8006042"></polygon>
            <polygon id="Fill-12" fill="#47C3D3" points="57.3109623 53.8006042 69.4536641 67.1982156 71.5213621 67.1982156 71.5213621 53.8006042"></polygon>
            <polygon id="Fill-13" fill="#ED1B2E" points="8.79419213 69.3672889 62.3801719 69.3672889 35.8439696 40.093508"></polygon>
            <polygon id="Fill-14" fill="#ED1B2E" points="25.4197347 31.4699121 46.543302 31.4699121 46.543302 18.0723007 25.4197347 18.0723007"></polygon>
        </g>
    </g>
</svg>