<?xml version="1.0" encoding="UTF-8"?>
<svg width="99px" height="99px" viewBox="0 0 99 99" version="1.1" xmlns="http://www.w3.org/2000/svg" xmlns:xlink="http://www.w3.org/1999/xlink">
    <!-- Generator: Sketch 59.1 (86144) - https://sketch.com -->
    <title>Artboard</title>
    <desc>Created with Sketch.</desc>
    <defs>
        <polygon id="path-1" points="0 0 89.8619632 0 89.8619632 20.1936705 0 20.1936705"></polygon>
    </defs>
    <g id="Artboard" stroke="none" stroke-width="1" fill="none" fill-rule="evenodd">
        <g id="Group-3" transform="translate(4.500000, 39.000000)">
            <mask id="mask-2" fill="white">
                <use xlink:href="#path-1"></use>
            </mask>
            <g id="Clip-2"></g>
            <path d="M73.1630317,6.05177454 C73.508879,6.64715867 73.6174193,7.31909723 73.6564609,8.07746821 L73.7070268,9.08713998 L73.7070268,16.1549599 L73.7575927,17.1635733 C73.8573133,18.8148441 75.0712478,20.0377159 76.7371004,20.1431987 L77.7458314,20.193647 L77.7458314,9.08713998 L77.7962797,8.07746821 C77.8356741,7.32862244 77.9455079,6.64139651 78.2941775,6.04424845 C78.9944565,4.84466055 80.2952938,4.03866355 81.7845185,4.03866355 C83.279035,4.03866355 84.5839881,4.85054031 85.2825032,6.05718391 C85.6263513,6.65139209 85.7328925,7.33755967 85.7727572,8.07746821 L85.8232056,9.08608162 L85.8232056,16.1549599 L85.8737715,17.1635733 C85.9784311,18.8244869 87.1848395,20.0464179 88.8532792,20.1431987 L89.8620102,20.193647 L89.8620102,9.0963124 L89.8620102,8.07746821 C89.8620102,3.61637944 86.2456073,-2.35190255e-05 81.7845185,-2.35190255e-05 C79.3720544,-2.35190255e-05 77.2065402,1.05762706 75.7263703,2.73453358 C74.246318,1.05762706 72.0808037,-2.35190255e-05 69.6682221,-2.35190255e-05 C67.9921387,-2.35190255e-05 66.4351793,0.51045693 65.1445727,1.38454151 C64.3590373,0.51045693 62.6005197,-2.35190255e-05 61.590848,-2.35190255e-05 L61.590848,20.193647 L62.6005197,20.1431987 C64.2869515,20.0323065 65.5131159,18.841303 65.5790867,17.1649845 L65.629535,16.1549599 L65.629535,9.08713998 L65.6799833,8.07746821 C65.7226704,7.31803887 65.8283884,6.64457158 66.1755292,6.04824668 C66.8752202,4.84642448 68.1774687,4.03866355 69.6682221,4.03866355 C71.1606219,4.03866355 72.4639287,4.84807081 73.1630317,6.05177454 L73.1630317,6.05177454 Z M4.0387341,20.1431987 L5.04840587,20.193647 L20.1937176,20.193647 L20.1432692,19.1850336 C20.0081524,17.5224737 18.8309076,16.3094799 17.1647023,16.2054082 L16.1549129,16.1549599 L7.0677494,16.1549599 L19.1840458,4.03866355 L19.1334799,3.03028533 C19.0535152,1.35467235 17.8274684,0.138856327 16.1547953,0.0504247908 L15.1452411,0.000917241996 L-7.05570766e-05,-2.35190255e-05 L0.0504953478,1.00870749 C0.18126113,2.65127623 1.37626282,3.89284559 3.02776879,3.98821524 L4.0387341,4.03866355 L13.1258976,4.03866355 L1.0097188,16.1549599 L1.06016711,17.1636909 C1.15977019,18.8280148 2.36182758,20.0327769 4.0387341,20.1431987 L4.0387341,20.1431987 Z M57.6237763,2.95725875 C61.5669762,6.90034098 61.5669762,13.2932825 57.6237763,17.2363647 C53.6806941,21.179447 47.2877526,21.179447 43.3447879,17.2363647 C39.4015881,13.2932825 39.4015881,6.90034098 43.3447879,2.95725875 C45.3146239,0.987422768 47.8959546,0.00162281276 50.4778732,-2.35190255e-05 C53.0724921,0.00162281276 55.6538228,0.987422768 57.6237763,2.95725875 L57.6237763,2.95725875 Z M54.7679787,5.81305643 C57.1337574,8.1789528 57.1337574,12.0147883 54.7679787,14.3805671 C52.4021999,16.7463458 48.5663644,16.7463458 46.2005856,14.3805671 C43.8346893,12.0147883 43.8346893,8.1789528 46.2005856,5.81305643 C48.5663644,3.44727765 52.4021999,3.44727765 54.7679787,5.81305643 L54.7679787,5.81305643 Z M29.2873488,-2.35190255e-05 C31.8691498,0.00162281276 34.4504805,0.987422768 36.420434,2.95725875 C40.3635163,6.90034098 40.3635163,13.2932825 36.420434,17.2363647 C32.4773518,21.179447 26.0844103,21.179447 22.1413281,17.2363647 C18.1982458,13.2932825 18.1982458,6.90034098 22.1413281,2.95725875 C24.111164,0.987422768 26.6926123,0.00162281276 29.2744133,-2.35190255e-05 L29.2873488,-2.35190255e-05 Z M33.5646364,5.81305643 C35.9304151,8.1789528 35.9304151,12.0147883 33.5646364,14.3805671 C31.19874,16.7463458 27.3630221,16.7463458 24.9971257,14.3805671 C22.631347,12.0147883 22.631347,8.1789528 24.9971257,5.81305643 C27.3630221,3.44727765 31.19874,3.44727765 33.5646364,5.81305643 L33.5646364,5.81305643 Z" id="Fill-1" fill="#2D8CFF" mask="url(#mask-2)"></path>
        </g>
    </g>
</svg>